<svg width="35" height="35" viewBox="0 0 35 35" fill="none" xmlns="http://www.w3.org/2000/svg">
<path d="M33.9733 17.6613L34.0623 17.6386C34.1463 17.6024 34.2095 17.5285 34.2294 17.4383L34.2322 17.4245V17.419L34.237 17.3879V17.3478L34.2363 17.3458C34.2361 17.3436 34.2361 17.3408 34.2357 17.3368C34.2354 17.3348 34.2346 17.3324 34.2343 17.3299C34.2341 17.328 34.2338 17.3259 34.2336 17.3237C34.2332 17.3207 34.2324 17.3183 34.2322 17.3168L34.2336 17.3223C34.2325 17.3167 34.232 17.3129 34.2315 17.3106L34.2301 17.3092L34.2281 17.3002C34.1977 17.1807 34.0941 17.0917 33.9705 17.0813L33.9505 17.0806L33.9304 17.0772C29.1915 16.2868 25.5563 14.4902 22.8847 11.731C20.2237 8.98289 18.5566 5.31875 17.6739 0.849603C17.6661 0.821409 17.6602 0.79185 17.6573 0.761215C17.6445 0.62366 17.5351 0.514374 17.397 0.502265L17.3963 0.502955C17.3937 0.502794 17.3917 0.502347 17.3901 0.502265C17.3876 0.502146 17.3878 0.501574 17.3894 0.501574H17.388L17.3797 0.502955L17.3583 0.503646H17.3542C17.2133 0.509297 17.0961 0.619108 17.0814 0.761215L17.0787 0.783312L17.0745 0.805409C16.196 5.2942 14.5268 8.97356 11.8568 11.731C9.18369 14.4918 5.54583 16.2885 0.803458 17.0778L0.784123 17.082L0.764097 17.0827C0.638896 17.0934 0.534961 17.1852 0.507909 17.3071C0.507123 17.3106 0.505319 17.3139 0.504457 17.3175L0.501695 17.3423C0.501273 17.3463 0.50024 17.3506 0.499623 17.3554H0.501004V17.3637L0.500313 17.3741V17.3824L0.501695 17.3907C0.502005 17.3959 0.500862 17.3989 0.501004 17.401C0.501294 17.4035 0.502527 17.4043 0.502385 17.4024V17.4093L0.503766 17.4162C0.524133 17.5484 0.633252 17.6505 0.76686 17.6613L0.788266 17.6634L0.808982 17.6662C5.54808 18.4554 9.18414 20.2519 11.8561 23.0109C14.525 25.7667 16.194 29.444 17.0724 33.9296L17.0773 33.9538L17.0793 33.978C17.0926 34.1175 17.2025 34.2256 17.339 34.2376L17.3493 34.2383L17.359 34.2397L17.3597 34.2404H17.3804L17.4329 34.2335C17.5527 34.2065 17.6434 34.1068 17.6566 33.9821L17.6594 33.96L17.6635 33.9393C18.5437 29.4502 20.2128 25.7706 22.8819 23.013C25.5542 20.2521 29.191 18.4549 33.9332 17.6655L33.9339 17.6648C33.9466 17.6627 33.9597 17.6645 33.9726 17.6634M33.9733 17.6613L33.9726 17.6634M33.9733 17.6613L33.9726 17.6634M33.9733 17.6613C33.9804 17.6607 33.9876 17.6624 33.9947 17.662C33.9872 17.6623 33.98 17.6628 33.9726 17.6634M34.2847 17.7366L34.3696 17.805C34.3416 17.777 34.3103 17.7539 34.2778 17.7338C34.2799 17.7351 34.2826 17.7353 34.2847 17.7366ZM34.1742 17.6855C34.1978 17.6933 34.2197 17.7046 34.2419 17.7159C34.2196 17.7045 34.1977 17.6934 34.1742 17.6855ZM34.0672 17.6627C34.086 17.6646 34.104 17.6698 34.1224 17.6738C34.104 17.6697 34.0859 17.6647 34.0672 17.6627ZM18.2394 1.20937C18.2226 1.21215 18.2059 1.21461 18.189 1.21559C18.2059 1.21458 18.2226 1.21217 18.2394 1.20937ZM17.8935 0.290271C17.9121 0.278436 17.9307 0.267459 17.9501 0.258506C17.9307 0.267479 17.9121 0.278412 17.8935 0.290271ZM17.6691 0.394541C17.6656 0.397208 17.6615 0.398867 17.658 0.401447C17.6615 0.398841 17.6657 0.397234 17.6691 0.394541ZM17.8196 0.199811C17.8145 0.211367 17.8076 0.221849 17.8016 0.232957C17.8075 0.221806 17.8146 0.211394 17.8196 0.199811ZM17.5655 0.45669C17.5458 0.465506 17.5257 0.473946 17.5047 0.480168C17.5258 0.473846 17.5457 0.465589 17.5655 0.45669ZM17.8362 0.155617C17.8335 0.163819 17.8303 0.171762 17.8272 0.179785C17.8304 0.171467 17.832 0.162735 17.8348 0.154236L17.8362 0.155617ZM0.445071 17.4597C0.42457 17.4934 0.401288 17.5255 0.373255 17.5536C0.401452 17.5254 0.424597 17.4932 0.445071 17.4597ZM0.503766 17.3237C0.503504 17.3265 0.503042 17.3309 0.502385 17.3361V17.3347L0.503766 17.3237Z" fill="url(#paint0_linear_sidebar_star)" stroke="url(#paint1_linear_sidebar_star)"/>
<defs>
<linearGradient id="paint0_linear_sidebar_star" x1="8.52142" y1="8.52295" x2="26.2179" y2="26.2194" gradientUnits="userSpaceOnUse">
<stop stopColor="#472E33"/>
<stop offset="1" stopColor="#2F1E22"/>
</linearGradient>
<linearGradient id="paint1_linear_sidebar_star" x1="5.0185" y1="15.7126" x2="29.5361" y2="19.2163" gradientUnits="userSpaceOnUse">
<stop stopColor="white" stopOpacity="0.24"/>
<stop offset="0.5" stopColor="white" stopOpacity="0.1"/>
<stop offset="1" stopColor="white" stopOpacity="0.24"/>
</linearGradient>
</defs>
</svg>





